<svg width="224" height="130" viewBox="0 0 224 130" fill="none" xmlns="http://www.w3.org/2000/svg">
<path d="M222.312 62.2258C222.198 52.2736 214.081 44.3354 204.134 44.4488C194.187 44.5623 186.253 52.6834 186.367 62.6357C186.702 92.04 167.316 117.032 140.616 125.141C146.287 126.773 152.401 127.608 158.618 127.537C194.223 127.018 222.717 97.7372 222.312 62.2258Z" fill="#F4F4F4"/>
<path d="M203.284 108.704C210.101 101.727 209.973 90.5304 202.999 83.7103C196.025 76.8902 184.835 77.0178 178.018 83.9951C157.793 104.698 126.863 108.671 102.521 95.6013C105.405 100.658 109.077 105.48 113.422 109.729C138.573 134.326 178.813 133.867 203.284 108.704Z" fill="#A3FD79"/>
<path d="M158.731 127.536C168.452 127.425 176.387 119.417 176.275 109.578C176.164 99.8516 168.16 91.9123 158.326 92.0244C129.39 92.3544 104.754 73.2937 96.7642 46.8044C95.2462 52.4771 94.409 58.3683 94.4799 64.5884C94.8823 99.8736 123.578 127.937 158.731 127.536Z" fill="#F4F4F4"/>
<path d="M1.66838 64.7418C1.5549 54.7896 9.48878 46.6684 19.4358 46.555C29.3828 46.4416 37.4999 54.3797 37.6134 64.332C37.9487 93.7363 57.8991 118.279 84.7772 125.777C79.1448 127.538 73.0513 128.513 66.8344 128.584C31.2272 128.876 2.07331 100.253 1.66838 64.7418Z" fill="#F4F4F4"/>
<path d="M21.6377 110.775C14.664 103.955 14.5363 92.7589 21.3527 85.7816C28.1692 78.8043 39.3596 78.6767 46.3334 85.4967C67.026 105.733 98.0387 108.999 122.076 95.3784C119.308 100.5 115.746 105.404 111.5 109.751C87.0293 134.913 46.789 135.372 21.6377 110.775Z" fill="#A3FD79"/>
<path d="M66.7212 128.585C57.0002 128.696 48.8845 120.871 48.7724 111.031C48.6615 101.305 56.4823 93.1856 66.3163 93.0736C95.2531 92.7435 119.448 73.1261 126.831 46.4615C128.478 52.0981 129.45 57.9687 129.521 64.1888C129.923 99.474 101.762 128.185 66.7212 128.585Z" fill="#F4F4F4"/>
<path d="M111.169 110.433C104.352 117.411 93.0488 117.539 86.075 110.719C79.1013 103.899 78.9723 92.5899 85.7887 85.6126C106.126 64.795 109.277 33.7674 95.663 9.71741C100.782 12.4868 105.684 16.0503 110.141 20.2976C135.292 44.8947 135.753 85.2691 111.169 110.433Z" fill="#A3FD79"/>
<path d="M112.51 109.06C112.967 109.508 113.424 109.955 113.882 110.402C114.339 110.849 114.796 111.297 115.365 111.629C115.813 111.285 116.373 110.826 116.82 110.369C125.537 101.447 131.179 90.6371 133.535 79.1863C131.93 77.1687 130.436 75.0367 129.053 72.7903C127.509 86.0415 122.002 98.7725 112.51 109.06Z" fill="#A3FD79"/>
<path d="M129.757 65.091C129.869 74.9301 122.047 82.9369 112.213 83.049C102.379 83.1612 94.3764 75.3348 94.2642 65.4957C93.9327 36.4306 74.2123 12.2241 47.5615 4.83664C53.1952 3.18889 59.0626 2.2171 65.2795 2.14621C100.545 1.63099 129.356 29.9188 129.757 65.091Z" fill="#F4F4F4"/>
<path d="M85.5622 45.914C75.8447 36.4106 63.796 30.6664 51.3364 28.5463C50.6195 25.1612 48.9996 21.8995 46.2558 19.2162C40.9969 14.0732 33.5225 12.9142 27.2196 15.3614C51.9875 -3.58396 87.5035 -1.95296 110.37 20.5211C117.343 27.3412 117.472 38.6506 110.656 45.6279C103.726 52.6065 92.536 52.7341 85.5622 45.914Z" fill="#A3FD79"/>
<path d="M66.0223 37.5406C52.4582 37.6953 39.8474 42.1372 29.5307 49.4938C26.6829 47.6034 23.1647 46.3994 19.3215 46.4432C12.0873 46.5257 5.80639 50.8954 3.05145 57.1478C7.22078 26.2217 33.4013 2.28349 65.5031 1.91745C75.3371 1.80531 83.3398 9.63166 83.452 19.4708C83.6785 29.4218 75.7433 37.4298 66.0223 37.5406Z" fill="#F4F4F4"/>
<path d="M46.546 44.6622C42.5232 48.78 39.0707 53.3437 36.4133 58.2376C33.8479 51.3673 27.2351 46.4659 19.4358 46.5548C11.8625 46.6412 5.47238 51.3515 2.94739 57.9406C4.37125 44.012 10.3204 30.3712 20.9361 19.5049C27.8643 12.4132 39.2808 12.283 46.3689 19.2149C53.3452 26.2611 53.4742 37.5705 46.546 44.6622Z" fill="#A3FD79"/>
<path d="M113.882 110.402C120.855 117.222 132.159 117.093 138.975 110.116C145.792 103.139 145.663 91.8292 138.689 85.0092C117.882 64.6607 114.025 33.713 127.087 9.35889C122.032 12.2442 117.213 15.9187 112.854 20.2665C88.2699 45.4306 88.7302 85.8051 113.882 110.402Z" fill="#A3FD79"/>
<path opacity="0.1" d="M112.51 109.06C112.967 109.508 113.424 109.955 113.882 110.402C114.339 110.849 114.796 111.297 115.365 111.629C115.813 111.285 116.373 110.826 116.82 110.369C125.537 101.447 131.179 90.6371 133.535 79.1863C131.93 77.1687 130.436 75.0367 129.053 72.7903C127.509 86.0415 122.002 98.7725 112.51 109.06Z" fill="#F4F4F4"/>
<path d="M94.2642 65.4956C94.3764 75.3347 102.379 83.161 112.213 83.0489C122.047 82.9368 129.869 74.9299 129.757 65.0909C129.426 36.0257 148.589 11.3759 175.064 3.38265C169.395 1.86379 163.507 1.02605 157.29 1.09694C122.022 1.38598 93.8632 30.3235 94.2642 65.4956Z" fill="#F4F4F4"/>
<path d="M138.01 45.3161C147.509 35.5936 159.423 29.5761 171.831 27.1724C172.471 23.7719 174.016 20.4741 176.698 17.7289C181.838 12.4673 189.284 11.1382 195.641 13.441C170.448 -4.93464 134.978 -2.49422 112.63 20.4954C105.814 27.4727 105.943 38.7821 112.917 45.6022C119.89 52.4223 131.194 52.2934 138.01 45.3161Z" fill="#A3FD79"/>
<path d="M157.354 36.4993C170.918 36.3446 183.627 40.4978 194.109 47.6172C196.913 45.6624 200.403 44.3784 204.246 44.3346C211.48 44.2521 217.859 48.4775 220.756 54.6654C215.882 23.8424 189.163 0.507465 157.061 0.87351C147.227 0.985643 139.405 8.99243 139.517 18.8316C139.517 28.7851 147.52 36.6114 157.354 36.4993Z" fill="#F4F4F4"/>
<path d="M176.988 43.1749C181.103 47.1999 184.659 51.6836 187.427 56.5157C189.835 49.5886 196.335 44.5378 204.134 44.4488C211.707 44.3625 218.203 48.9259 220.878 55.4557C219.137 41.5632 212.878 28.0616 202.017 17.4401C194.929 10.5082 183.513 10.6384 176.585 17.7301C169.771 24.9337 169.9 36.243 176.988 43.1749Z" fill="#A3FD79"/>
<path opacity="0.25" d="M94.2539 64.5909C94.0828 59.503 93.3491 54.6477 92.1646 49.9106C93.3001 50.3501 94.5461 50.5621 95.7921 50.7741C94.8263 55.3095 94.314 59.9528 94.2539 64.5909Z" fill="#F4F4F4"/>
<path opacity="0.1" d="M88.0735 48.0343C90.9187 49.6985 92.0529 50.0249 92.0529 50.0249C93.1884 50.4644 94.4343 50.6765 95.6803 50.8885C98.1537 39.7756 103.691 29.6458 111.172 21.5298C110.829 21.1944 110.6 20.8577 110.257 20.5223C107.97 18.2862 105.687 16.3894 103.18 14.6083C96.8351 23.2769 90.5585 37.9394 88.0735 48.0343Z" fill="#F4F4F4"/>
</svg>
